<svg width="24" height="24" viewBox="0 0 24 24" fill="none" xmlns="http://www.w3.org/2000/svg">
<path fill-rule="evenodd" clip-rule="evenodd" d="M5.86939 2.18848C8.06744 0.586905 10.7652 -0.176943 13.4766 0.0345821C16.188 0.246108 18.7347 1.4191 20.6578 3.34217C22.5809 5.26525 23.7539 7.81195 23.9654 10.5234C24.1769 13.2348 23.4131 15.9326 21.8115 18.1306C20.2099 20.3287 17.876 21.8824 15.2302 22.5119C12.7086 23.1118 10.0619 22.8345 7.72414 21.7326L1.17428 23.9529C0.853877 24.0615 0.499596 23.9788 0.260374 23.7396C0.0211509 23.5004 -0.0615345 23.1461 0.0470769 22.8257L2.26737 16.2759C1.16546 13.9381 0.888238 11.2914 1.48814 8.76983C2.1176 6.12403 3.67135 3.79005 5.86939 2.18848ZM13.3384 1.80697C11.0494 1.6284 8.77191 2.27324 6.91631 3.6253C5.06071 4.97735 3.74904 6.9477 3.21765 9.18129C2.68625 11.4149 2.9701 13.7648 4.01802 15.8077C4.12779 16.0216 4.14617 16.271 4.06896 16.4987L2.3088 21.6912L7.50127 19.931C7.72903 19.8538 7.97837 19.8722 8.19235 19.982C10.2352 21.0299 12.5851 21.3137 14.8187 20.7824C17.0523 20.251 19.0226 18.9393 20.3747 17.0837C21.7268 15.2281 22.3716 12.9506 22.193 10.6616C22.0145 8.37265 21.0242 6.22272 19.4007 4.59925C17.7773 2.97578 15.6273 1.98554 13.3384 1.80697Z" fill="black"/>
</svg>
