<svg width="27" height="16" viewBox="0 0 27 16" fill="none" xmlns="http://www.w3.org/2000/svg">
<path d="M25.4493 2.03595H1.01797C0.461481 2.03595 0 1.57447 0 1.01797C0 0.461481 0.461481 0 1.01797 0H25.4493C26.0058 0 26.4673 0.461481 26.4673 1.01797C26.4673 1.57447 26.0058 2.03595 25.4493 2.03595Z" fill="black"/>
<path d="M25.4493 8.82208H1.01797C0.461481 8.82208 0 8.3606 0 7.80411C0 7.24761 0.461481 6.78613 1.01797 6.78613H25.4493C26.0058 6.78613 26.4673 7.24761 26.4673 7.80411C26.4673 8.3606 26.0058 8.82208 25.4493 8.82208Z" fill="black"/>
<path d="M25.4493 15.6082H1.01797C0.461481 15.6082 0 15.1467 0 14.5902C0 14.0337 0.461481 13.5723 1.01797 13.5723H25.4493C26.0058 13.5723 26.4673 14.0337 26.4673 14.5902C26.4673 15.1467 26.0058 15.6082 25.4493 15.6082Z" fill="black"/>
</svg>
