<svg width="24" height="24" viewBox="0 0 24 24" fill="none" xmlns="http://www.w3.org/2000/svg">
<path d="M12.0194 2.90967C8.70936 2.90967 6.01936 5.59967 6.01936 8.90967V11.7997C6.01936 12.4097 5.75936 13.3397 5.44936 13.8597L4.29936 15.7697C3.58936 16.9497 4.07936 18.2597 5.37936 18.6997C9.68935 20.1397 14.3394 20.1397 18.6494 18.6997C19.8594 18.2997 20.3894 16.8697 19.7294 15.7697L18.5794 13.8597C18.2794 13.3397 18.0194 12.4097 18.0194 11.7997V8.90967C18.0194 5.60967 15.3194 2.90967 12.0194 2.90967Z" stroke="black" stroke-width="1.5" stroke-miterlimit="10" stroke-linecap="round"/>
<path d="M13.8699 3.20043C13.5599 3.11043 13.2399 3.04043 12.9099 3.00043C11.9499 2.88043 11.0299 2.95043 10.1699 3.20043C10.4599 2.46043 11.1799 1.94043 12.0199 1.94043C12.8599 1.94043 13.5799 2.46043 13.8699 3.20043Z" stroke="black" stroke-width="1.5" stroke-miterlimit="10" stroke-linecap="round" stroke-linejoin="round"/>
<path d="M15.0193 19.0591C15.0193 20.7091 13.6693 22.0591 12.0193 22.0591C11.1993 22.0591 10.4393 21.7191 9.89929 21.1791C9.35929 20.6391 9.01929 19.8791 9.01929 19.0591" stroke="black" stroke-width="1.5" stroke-miterlimit="10"/>
</svg>
