<svg width="25" height="24" viewBox="0 0 25 24" fill="none" xmlns="http://www.w3.org/2000/svg">
<path d="M12.2779 13.5544C8.54106 13.5544 5.50073 10.514 5.50073 6.77721C5.50073 3.04033 8.54072 0 12.2779 0C16.015 0 19.0552 3.04038 19.0552 6.7777C19.0552 10.5147 16.015 13.5549 12.2779 13.5549V13.5544ZM12.2779 1.20821C9.20719 1.20821 6.70845 3.70631 6.70845 6.7777C6.70845 9.84865 9.20655 12.3472 12.2779 12.3472C15.3489 12.3472 17.8474 9.84909 17.8474 6.7777C17.8473 3.70656 15.3487 1.20821 12.2779 1.20821V1.20821Z" fill="black"/>
<path d="M23.9522 23.9998C23.6185 23.9998 23.3481 23.7294 23.3481 23.3958V21.654C23.3481 19.2487 21.3911 17.2919 18.9861 17.2919H5.57008C3.16482 17.2919 1.20801 19.2489 1.20801 21.654V23.3958C1.20801 23.7294 0.937642 23.9998 0.604006 23.9998C0.270369 23.9998 0 23.7294 0 23.3958V21.654C0 18.5824 2.49869 16.0835 5.57047 16.0835H18.9865C22.058 16.0835 24.5569 18.5822 24.5569 21.654V23.3958C24.5568 23.729 24.2862 23.9998 23.9526 23.9998H23.9522Z" fill="black"/>
</svg>
